<?xml version="1.0" encoding="utf-8"?>
<!-- Generator: Adobe Illustrator 25.4.1, SVG Export Plug-In . SVG Version: 6.00 Build 0)  -->
<svg version="1.1" id="Ebene_1" xmlns="http://www.w3.org/2000/svg" xmlns:xlink="http://www.w3.org/1999/xlink" x="0px" y="0px"
	 viewBox="0 0 119.2 134.6" style="enable-background:new 0 0 119.2 134.6;" xml:space="preserve">
<style type="text/css">
	.st0{fill:#CED83F;}
</style>
<g>
	<path class="st0" d="M28.1,83.2c-1.4,5.4-2.7,25,11.8,25.8c10.7,1.7,30.8-10.9,39.8-18.2l-3.8-8c-12.9,7.5-23.1,13.9-33.7,14.5
		c-1.9,0.1-3.5-1.2-3.8-3.1c-0.4-2.4-0.3-5.8,0.3-9L28.1,83.2z"/>
	<path class="st0" d="M101,7.6c-16.8-10.8-35.5-9-52.6-1.5C27.8,15.2,9.5,32.7,0,46.7l9.2,6.9c0.3-0.4,20.5-24.5,45.1-34.1
		c12.2-4.8,25.5-6,38,1.2c16.4,10.5,8.6,48.5,0.2,65.5c-14.6,29.7-43.9,35.7-56.5,33.3c-12.7-2.3-17.9-11.9-18.3-19.9
		c-1-17.8,14.3-34.4,17.4-37.4l-11-7.9c-23.1,23.2-34.7,72.2,10.3,79.8c23.8,2.5,54.9-7.3,72.1-38.8C117.4,75.7,131,26,101,7.6z"/>
</g>
</svg>
